<?xml version="1.0" standalone="no"?>
<!DOCTYPE svg PUBLIC "-//W3C//DTD SVG 20010904//EN"
 "http://www.w3.org/TR/2001/REC-SVG-20010904/DTD/svg10.dtd">
<svg version="1.0" xmlns="http://www.w3.org/2000/svg"
 width="512.000000pt" height="512.000000pt" viewBox="0 0 512.000000 512.000000"
 preserveAspectRatio="xMidYMid meet">
<g transform="translate(0.000000,512.000000) scale(0.100000,-0.100000)"
fill="#000000" stroke="none">
<path d="M1085 4364 c-151 -130 -165 -143 -165 -159 0 -18 467 -327 489 -323
9 2 17 12 19 23 1 11 -44 137 -100 280 -84 211 -107 260 -123 262 -13 2 -57
-29 -120 -83z m176 -186 c38 -95 67 -173 66 -175 -2 -1 -74 45 -161 103 -130
87 -156 108 -145 118 68 62 162 136 167 131 3 -3 36 -83 73 -177z"/>
<path d="M1680 4395 c-18 -21 -4 -410 16 -426 20 -16 32 -5 149 131 138 161
142 167 124 185 -14 13 -255 125 -269 125 -4 0 -13 -7 -20 -15z m144 -108 l69
-32 -73 -85 c-40 -47 -74 -87 -76 -89 -2 -2 -4 50 -4 117 0 67 3 122 8 121 4
0 38 -15 76 -32z"/>
<path d="M3759 4093 c-6 -16 -49 -139 -94 -276 -75 -222 -82 -249 -68 -262 14
-14 18 -14 43 2 78 49 440 320 445 332 3 8 -2 23 -12 32 -35 34 -274 199 -289
199 -8 0 -19 -12 -25 -27z m154 -133 l87 -62 -155 -114 c-85 -63 -157 -114
-160 -114 -2 0 24 81 58 180 37 107 66 178 73 176 6 -2 50 -32 97 -66z"/>
<path d="M3235 4049 c-71 -28 -136 -57 -144 -64 -18 -18 -15 -23 139 -205 137
-161 159 -175 171 -105 4 22 8 126 10 230 l4 190 -25 2 c-14 1 -83 -20 -155
-48z m114 -136 c-2 -174 0 -173 -98 -59 -45 54 -81 99 -79 100 5 5 162 65 171
65 4 1 7 -47 6 -106z"/>
<path d="M747 3893 c-33 -101 -42 -143 -35 -156 9 -18 22 -18 201 -12 106 4
195 9 200 12 4 2 7 13 7 23 0 26 -277 270 -307 270 -20 0 -27 -15 -66 -137z
m178 -28 l80 -74 -112 -1 -112 0 26 75 c13 41 28 75 31 75 4 0 43 -34 87 -75z"/>
<path d="M2109 3847 c-19 -12 -41 -36 -49 -52 -20 -40 -18 -112 4 -154 10 -19
93 -120 184 -225 220 -254 214 -246 156 -196 -28 25 -127 126 -221 225 -229
243 -344 350 -389 365 -71 24 -141 0 -188 -64 -19 -24 -21 -40 -19 -137 l2
-110 -82 76 c-89 84 -113 99 -169 109 -117 21 -233 -92 -212 -205 11 -58 30
-84 172 -242 76 -84 142 -160 147 -168 5 -7 -31 21 -80 65 -103 90 -127 104
-190 113 -61 8 -127 -18 -162 -64 -32 -41 -42 -129 -23 -187 7 -22 74 -110
168 -219 102 -119 137 -165 102 -133 -80 72 -108 86 -165 86 -117 0 -180 -106
-127 -212 10 -19 140 -177 288 -349 690 -804 922 -999 1306 -1101 83 -22 87
-25 135 -83 60 -72 158 -160 278 -251 84 -63 91 -66 129 -60 49 8 168 62 232
107 l46 31 60 -31 c53 -27 71 -31 138 -31 70 0 84 4 169 45 254 124 436 306
586 587 62 116 76 162 76 241 0 89 -30 154 -102 225 -50 50 -165 133 -202 147
-11 5 -17 26 -22 73 -24 240 -73 506 -120 643 -33 100 -100 191 -223 306 -84
79 -127 129 -186 217 -114 172 -208 246 -310 246 -42 0 -53 -4 -81 -34 -42
-44 -69 -142 -63 -221 3 -30 2 -52 -2 -48 -4 4 -33 46 -66 93 -72 104 -119
157 -155 176 -37 19 -99 18 -128 -2 -23 -17 -25 -15 -235 194 -116 116 -224
216 -239 222 -51 18 -130 12 -168 -13z m134 -41 c18 -8 131 -114 252 -235 623
-628 765 -760 888 -822 30 -16 42 -18 53 -8 8 6 14 16 14 21 0 6 -33 43 -73
82 -138 133 -209 270 -209 401 0 110 36 175 97 175 68 0 154 -84 264 -260 25
-39 81 -105 125 -148 201 -193 225 -227 270 -387 32 -113 71 -326 85 -470 22
-213 13 -190 92 -231 93 -49 212 -160 235 -219 38 -100 -6 -231 -149 -446
-149 -225 -430 -435 -598 -447 -90 -7 -131 18 -298 185 -132 132 -146 143
-180 143 -223 0 -578 257 -970 700 -80 91 -252 284 -381 430 -130 146 -243
276 -253 290 -9 13 -17 43 -17 66 0 35 5 47 35 73 37 33 71 39 108 20 12 -6
150 -138 307 -293 157 -155 302 -290 323 -301 44 -23 70 -13 75 27 3 25 -56
91 -769 854 -54 58 -69 106 -48 155 23 57 103 86 156 56 12 -7 202 -174 423
-372 221 -198 408 -364 416 -368 18 -10 44 8 44 31 0 8 -38 53 -83 101 -239
247 -797 853 -812 881 -47 91 57 199 153 158 17 -7 250 -211 518 -453 267
-242 492 -444 500 -448 17 -10 44 8 44 28 0 7 -51 71 -112 142 -313 357 -625
718 -640 742 -20 29 -23 82 -7 112 9 18 59 47 82 49 4 0 22 -6 40 -14z m-890
-189 c15 -7 137 -114 271 -240 244 -228 352 -336 198 -197 -45 41 -99 83 -120
92 -48 23 -107 22 -158 -1 -39 -18 -84 -66 -84 -91 0 -23 -22 -3 -140 129 -71
79 -123 146 -128 165 -16 58 14 116 73 142 37 16 52 16 88 1z m1534 -260 c22
-24 64 -79 93 -122 29 -44 73 -107 98 -140 33 -45 0 -16 -128 111 -101 101
-170 176 -166 183 16 26 63 11 103 -32z m-1684 -181 c25 -11 387 -316 472
-398 20 -19 20 -19 -17 -3 -52 21 -98 19 -148 -8 -55 -29 -82 -78 -82 -147 1
-27 -1 -50 -3 -50 -7 0 -362 417 -374 439 -16 28 -14 87 4 121 28 54 87 72
148 46z m-41 -533 c19 -16 159 -147 312 -293 153 -146 284 -268 291 -273 18
-10 43 1 47 20 2 9 86 -78 209 -218 113 -129 257 -282 318 -341 283 -271 540
-434 723 -457 l63 -7 100 -103 c55 -56 101 -106 103 -110 7 -20 -183 -121
-229 -121 -47 0 -268 182 -365 301 -48 58 -61 68 -97 74 -141 24 -353 121
-498 229 -106 78 -319 284 -488 471 -162 178 -616 707 -630 734 -18 33 -13 70
14 96 33 34 82 33 127 -2z"/>
<path d="M3895 3411 c-123 -72 -171 -105 -173 -120 -4 -28 12 -34 216 -72 210
-40 204 -43 192 77 -4 44 -9 102 -11 130 -3 59 -14 84 -37 84 -9 0 -93 -45
-187 -99z m167 -72 c3 -41 5 -75 4 -76 -3 -4 -209 37 -214 42 -4 4 12 14 113
73 39 23 75 40 80 38 6 -1 13 -36 17 -77z"/>
</g>
</svg>
